<?xml version="1.0" standalone="no"?><!DOCTYPE svg PUBLIC "-//W3C//DTD SVG 1.1//EN" "http://www.w3.org/Graphics/SVG/1.1/DTD/svg11.dtd"><svg class="icon" width="200px" height="200.00px" viewBox="0 0 1024 1024" version="1.1" xmlns="http://www.w3.org/2000/svg"><path fill="#333333" d="M783.72916961 501.8659436a29.08760857 29.08760857 0 0 1-8.4030873 19.33787228L383.12815074 913.40174743c-5.06339821 5.06339821-12.60463023 8.40308732-19.33787225 8.4030873s-14.32834082-3.39355441-19.33787374-8.4030873l-42.06930187-42.06930189a27.36389945 27.36389945 0 0 1-8.40308731-19.33787373 29.08760857 29.08760857 0 0 1 8.40308731-19.33787373L633.17385882 501.86594359 302.38310288 171.07518765C297.31970467 166.01178797 293.98001558 158.47055596 293.98001557 151.73731394s3.39355441-14.32834082 8.40308731-19.33787375l42.06930187-42.06930189c5.06339821-5.06339821 12.60463023-8.40308732 19.33787374-8.40308731s14.32834082 3.39355441 19.33787224 8.40308731l392.19793158 392.19793156a28.87214586 28.87214586 0 0 1 8.4030873 19.33787374z" /></svg>