<?xml version="1.0" standalone="no"?><!DOCTYPE svg PUBLIC "-//W3C//DTD SVG 1.1//EN" "http://www.w3.org/Graphics/SVG/1.1/DTD/svg11.dtd"><svg class="icon" width="200px" height="200.00px" viewBox="0 0 1024 1024" version="1.1" xmlns="http://www.w3.org/2000/svg"><path fill="#333333" d="M512 875.91113281c200.97685547 0 363.91113281-162.93427734 363.91113281-363.91113281S712.97685547 148.08886719 512 148.08886719 148.08886719 311.02314453 148.08886719 512 311.02314453 875.91113281 512 875.91113281z m0 80.30830078C266.64628906 956.21943359 67.78056641 757.35371094 67.78056641 512S266.64628906 67.78056641 512 67.78056641 956.21943359 266.64628906 956.21943359 512 757.35371094 956.21943359 512 956.21943359z m-40.39628906-524.97685546h80.79257812v363.46113281h-80.79257812V431.24257812z m40.05-181.73144532h0.69257812c33.26572266 0 60.23056641 26.96572266 60.23056641 60.23056641v0.69257812c0 33.26484375-26.96660156 60.23056641-60.23056641 60.23056641h-0.69257812c-33.26484375 0-60.23056641-26.96660156-60.23056641-60.23056641v-0.69257812c0-33.26572266 26.96572266-60.23056641 60.23056641-60.23056641z" /></svg>