<?xml version="1.0" standalone="no"?><!DOCTYPE svg PUBLIC "-//W3C//DTD SVG 1.1//EN" "http://www.w3.org/Graphics/SVG/1.1/DTD/svg11.dtd"><svg class="icon" width="200px" height="200.00px" viewBox="0 0 1024 1024" version="1.1" xmlns="http://www.w3.org/2000/svg"><path fill="#333333" d="M576 685.714286v91.428571c0 10.276571-8.009143 18.285714-18.285714 18.285714h-91.428572a18.066286 18.066286 0 0 1-18.285714-18.285714v-91.428571c0-10.276571 8.009143-18.285714 18.285714-18.285715h91.428572c10.276571 0 18.285714 8.009143 18.285714 18.285715z m146.285714-283.428572c0 81.152-56.576 113.152-98.304 136.557715-29.696 17.152-48.018286 28.013714-48.018285 46.299428v18.285714c0 10.276571-8.009143 18.285714-18.285715 18.285715h-91.428571a18.066286 18.066286 0 0 1-18.285714-18.285715v-38.838857c0-70.290286 50.285714-92.562286 90.843428-110.848 34.304-16.018286 55.442286-26.843429 55.442286-52.553143 0-33.133714-41.728-57.709714-79.433143-57.709714-20.004571 0-41.142857 6.290286-54.272 15.433143-12.580571 8.557714-24.576 21.138286-45.714286 47.433143a17.334857 17.334857 0 0 1-14.299428 6.838857 17.517714 17.517714 0 0 1-10.861715-3.437714L327.972571 362.898286a18.541714 18.541714 0 0 1-3.986285-24.576c46.848-73.728 112.566857-109.714286 199.424-109.714286 93.696 0 198.838857 74.276571 198.838857 173.714286zM512 146.285714C310.272 146.285714 146.285714 310.272 146.285714 512s163.986286 365.714286 365.714286 365.714286 365.714286-163.986286 365.714286-365.714286S713.728 146.285714 512 146.285714z m438.857143 365.714286c0 242.285714-196.571429 438.857143-438.857143 438.857143S73.142857 754.285714 73.142857 512 269.714286 73.142857 512 73.142857s438.857143 196.571429 438.857143 438.857143z" /></svg>