<?xml version="1.0" standalone="no"?><!DOCTYPE svg PUBLIC "-//W3C//DTD SVG 1.1//EN" "http://www.w3.org/Graphics/SVG/1.1/DTD/svg11.dtd"><svg class="icon" width="200px" height="200.00px" viewBox="0 0 1024 1024" version="1.1" xmlns="http://www.w3.org/2000/svg"><path fill="#333333" d="M463.7999999 720.9249998a48.2000001 48.2000001 0 1 0 96.42499981 0 48.2000001 48.2000001 0 0 0-96.42499981 0z m16.0750002-305.3499996v184.82500019c0 4.39999981 3.62499961 8.02500029 8.0499999 8.02499942h48.2000001a8.0499999 8.0499999 0 0 0 8.0499999-8.02499942v-184.82500019a8.0499999 8.0499999 0 0 0-8.0499999-8.04999991h-48.2000001a8.0499999 8.0499999 0 0 0-8.0499999 8.04999991zM957.70000039 857.49999981L539.8499999 134.32500019c-6.2499999-10.7499999-16.99999981-16.07500019-27.82500029-16.07500019-10.8500001 0-21.7000002 5.32500029-27.82499942 16.0750002L66.34999971 857.49999981a32.15000039 32.15000039 0 0 0 27.82500029 48.22500058h835.7000001a32.15000039 32.15000039 0 0 0 27.82500029-48.22500059z m-787.00000078-28.0000002L512.02499961 238.64999961 853.34999961 829.49999961H170.69999961z" /></svg>